HIERARCHY
ROOT Hips
{
	OFFSET -0.179506 -22.333345 2.821913
	CHANNELS 6 Xposition Yposition Zposition Zrotation Yrotation Xrotation 
	JOINT LeftUpLeg
	{
		OFFSET 6.951974 -9.140623 -0.681533
		CHANNELS 3 Zrotation Yrotation Xrotation
		JOINT LeftLeg
		{
			OFFSET 3.427654 -37.519855 -0.449580
			CHANNELS 3 Zrotation Yrotation Xrotation
			JOINT LeftFoot
			{
				OFFSET -1.359570 -39.796059 -4.369333
				CHANNELS 3 Zrotation Yrotation Xrotation
				JOINT LeftToe
				{
					OFFSET 2.635814 -5.579078 11.928840
					CHANNELS 3 Zrotation Yrotation Xrotation
					End Site
					{
						OFFSET 0.000000 0.000000 0.000000
					}
				}
			}
		}
	}
	JOINT RightUpLeg
	{
		OFFSET -6.767048 -9.052170 -0.431982
		CHANNELS 3 Zrotation Yrotation Xrotation
		JOINT RightLeg
		{
			OFFSET -3.829005 -38.256897 -0.885003
			CHANNELS 3 Zrotation Yrotation Xrotation
			JOINT RightFoot
			{
				OFFSET 1.577377 -39.841461 -4.231180
				CHANNELS 3 Zrotation Yrotation Xrotation
				JOINT RightToe
				{
					OFFSET -2.537174 -4.814398 12.334795
					CHANNELS 3 Zrotation Yrotation Xrotation
					End Site
					{
						OFFSET 0.000000 0.000000 0.000000
					}
				}
			}
		}
	}
	JOINT Spine
	{
		OFFSET -0.253288 10.896323 -2.669631
		CHANNELS 3 Zrotation Yrotation Xrotation
		JOINT Spine1
		{
			OFFSET 0.548704 13.518043 0.109247
			CHANNELS 3 Zrotation Yrotation Xrotation
			JOINT Spine2
			{
				OFFSET 0.145701 5.292222 2.542457
				CHANNELS 3 Zrotation Yrotation Xrotation
				JOINT Neck
				{
					OFFSET -0.277840 21.387037 -4.285703
					CHANNELS 3 Zrotation Yrotation Xrotation
					JOINT Head
					{
						OFFSET 0.515184 6.496960 5.134897
						CHANNELS 3 Zrotation Yrotation Xrotation
						End Site
						{
							OFFSET 0.000000 0.000000 0.000000
						}
					}
				}
				JOINT LeftShoulder
				{
					OFFSET 7.884473 12.174932 -3.408961
					CHANNELS 3 Zrotation Yrotation Xrotation
					JOINT LeftArm
					{
						OFFSET 9.097692 3.046888 -0.886815
						CHANNELS 3 Zrotation Yrotation Xrotation
						JOINT LeftForeArm
						{
							OFFSET 25.961220 -1.277207 -2.745643
							CHANNELS 3 Zrotation Yrotation Xrotation
							JOINT LeftHand
							{
								OFFSET 24.923361 0.898606 -0.117091
								CHANNELS 3 Zrotation Yrotation Xrotation
								End Site
								{
									OFFSET 0.000000 0.000000 0.000000
								}
							}
						}
					}
				}
				JOINT RightShoulder
				{
					OFFSET -8.175920 11.883285 -3.861528
					CHANNELS 3 Zrotation Yrotation Xrotation
					JOINT RightArm
					{
						OFFSET -9.601238 3.255117 -0.914307
						CHANNELS 3 Zrotation Yrotation Xrotation
						JOINT RightForeArm
						{
							OFFSET -25.374195 -1.332924 -2.140099
							CHANNELS 3 Zrotation Yrotation Xrotation
							JOINT RightHand
							{
								OFFSET -25.529810 0.777228 -0.555919
								CHANNELS 3 Zrotation Yrotation Xrotation
								End Site
								{
									OFFSET 0.000000 0.000000 0.000000
								}
							}
						}
					}
				}
			}
		}
	}
}
MOTION
Frames: 5
Frame Time: 0.033333
-0.179506 45.007492 2.821913 116.062739 -54.154997 147.090474 3.529556 -1.652943 -0.247097 -1.653717 -12.237955 17.128118 -10.256482 5.034045 17.404569 0.469749 -0.345329 0.068850 -4.119258 -2.364520 -5.648338 -1.442788 0.605528 27.397074 7.344078 -4.597732 15.601774 1.974842 -0.558673 -0.104730 -1.741311 -1.913440 15.769469 -1.547787 -1.924337 1.444133 2.733527 -3.149150 3.037563 -1.387162 -4.852920 0.263586 6.043821 2.908415 0.992393 -15.361435 -0.141159 8.680859 -53.721966 -0.812874 9.755899 -6.482693 -29.303629 12.823686 -4.494586 -8.494043 -10.556641 2.961390 2.516530 1.074264 68.621781 -6.937033 16.317840 -2.772970 32.809526 4.680949 14.281083 3.710950 -15.901354 
-0.257303 45.035072 3.102918 116.787468 -54.226966 146.400785 3.683509 -1.648593 -0.281154 -1.599486 -12.340761 17.252682 -10.082151 4.999513 17.065903 0.475992 -0.347788 0.103639 -3.979808 -2.400708 -5.455116 -1.363216 0.607140 27.207322 7.425716 -4.537277 15.743045 2.071132 -0.555839 -0.103633 -1.748567 -1.842583 15.710881 -1.474712 -1.976880 1.547765 2.722940 -3.130831 2.973269 -1.380630 -4.814534 0.500103 6.037206 2.820924 1.012931 -15.370963 -0.235883 8.678262 -53.840126 -0.938389 9.834457 -6.444997 -29.600030 13.036435 -4.494839 -8.477743 -10.377962 2.931168 2.670236 1.113766 68.472492 -6.747841 16.369439 -2.660847 32.408152 4.926616 14.432844 3.645656 -15.829606 
-0.261932 45.064690 3.188786 117.006330 -54.345583 146.210759 3.729517 -1.590868 -0.263573 -1.588439 -12.150715 17.225511 -10.065079 4.871941 16.955980 0.437498 -0.333515 0.139957 -3.950151 -2.489338 -5.022021 -1.362635 0.824126 26.527572 7.324367 -4.558788 15.701480 2.123388 -0.567891 -0.068841 -1.735523 -1.734314 15.665264 -1.467285 -1.993628 1.513338 2.685910 -3.089223 2.972983 -1.381222 -4.741316 0.686744 6.019098 2.801184 0.952153 -15.268230 -0.346170 8.637899 -54.033227 -1.021956 9.835055 -6.315427 -29.481868 13.330519 -4.572219 -8.683832 -10.261657 2.940245 2.821265 1.210788 68.425705 -6.621693 16.387006 -2.400126 31.954782 5.292460 14.633883 3.629724 -15.689384 
-0.219971 45.094368 3.193077 117.141845 -54.339371 146.027522 3.816485 -1.601709 0.095226 -1.608233 -12.499921 16.725920 -10.091289 5.032094 17.073657 0.517000 -0.254446 0.218851 -3.862492 -2.370813 -5.033963 -1.301172 0.952963 26.772514 7.236502 -4.660889 15.841808 2.305141 -0.620366 0.019531 -1.760318 -1.782596 15.649433 -1.419454 -1.989062 1.347620 2.634896 -3.031124 2.906541 -1.428892 -4.844086 0.791732 5.921975 2.616235 1.028550 -15.328982 -0.211169 8.642290 -54.044072 -1.105769 9.823383 -6.256639 -29.133537 13.372997 -4.633270 -8.583938 -9.853909 2.971082 2.744046 1.212280 68.395935 -6.572590 16.579004 -2.229639 31.620178 5.261517 14.568867 3.500484 -15.643681 
-0.366772 45.124458 3.561509 117.700967 -54.443216 145.484001 3.844893 -1.623281 -0.092804 -1.600113 -12.283521 17.076737 -9.949897 4.824317 16.736975 0.431941 -0.226656 0.272030 -3.887364 -2.426957 -4.664939 -1.268099 1.115217 26.219498 7.291476 -4.577347 15.903626 2.376732 -0.640400 -0.015628 -1.729908 -1.664672 15.571278 -1.411405 -2.000814 1.508647 2.657893 -2.989697 2.856690 -1.358316 -4.844078 0.720177 5.997718 2.716741 1.126924 -15.181612 -0.474923 8.603071 -54.306662 -1.106582 9.957960 -6.411425 -29.769150 13.723923 -4.592785 -8.777912 -10.164170 2.787771 2.844975 1.215979 68.300678 -6.544326 16.554634 -2.310498 31.632105 5.371183 14.659979 3.507666 -15.441432 
